Normalized EMG Linear Envelopes
nRows=111
nColumns=4

endheader
time	 med_gas_r	  soleus_r	 tib_ant_r	
3.625	  0.008466	  0.006085	  0.002049	
3.6875	  0.008365	  0.006139	  0.002038	
3.75	  0.008154	  0.006970	  0.001958	
3.8125	  0.007991	  0.009281	  0.001859	
3.875	  0.007934	  0.013543	  0.001788	
3.9375	  0.007784	  0.019085	  0.001730	
4	  0.007563	  0.022648	  0.001648	
4.0625	  0.007445	  0.020237	  0.001565	
4.125	  0.007413	  0.015132	  0.001683	
4.1875	  0.007581	  0.010803	  0.002310	
4.25	  0.007942	  0.008211	  0.003819	
4.3125	  0.008258	  0.007313	  0.006341	
4.375	  0.008438	  0.007314	  0.009240	
4.4375	  0.008115	  0.006702	  0.010244	
4.5	  0.007380	  0.004293	  0.007833	
4.5625	  0.006732	  0.000340	  0.004696	
4.625	  0.006299	 -0.003674	  0.002755	
4.6875	  0.005746	 -0.004163	  0.002864	
4.75	  0.005103	  0.005940	  0.005404	
4.8125	  0.005253	  0.036879	  0.010274	
4.875	  0.008149	  0.097737	  0.016282	
4.9375	  0.017474	  0.186808	  0.021148	
5	  0.041666	  0.293784	  0.025486	
5.0625	  0.096102	  0.427875	  0.031071	
5.125	  0.195645	  0.587588	  0.039698	
5.1875	  0.337213	  0.736793	  0.050422	
5.25	  0.482468	  0.810212	  0.059308	
5.3125	  0.580748	  0.745190	  0.061648	
5.375	  0.602297	  0.591612	  0.057564	
5.4375	  0.563311	  0.443352	  0.052143	
5.5	  0.515591	  0.320638	  0.047704	
5.5625	  0.492447	  0.256196	  0.043986	
5.625	  0.507986	  0.261705	  0.041986	
5.6875	  0.568064	  0.320065	  0.043539	
5.75	  0.649969	  0.393628	  0.046773	
5.8125	  0.714752	  0.439716	  0.048924	
5.875	  0.744219	  0.449261	  0.048818	
5.9375	  0.754430	  0.442654	  0.048096	
6	  0.760679	  0.451424	  0.048466	
6.0625	  0.775260	  0.468818	  0.050110	
6.125	  0.791113	  0.480810	  0.051522	
6.1875	  0.796626	  0.489384	  0.052468	
6.25	  0.784997	  0.483537	  0.054483	
6.3125	  0.775814	  0.472878	  0.058331	
6.375	  0.781972	  0.476545	  0.062843	
6.4375	  0.788374	  0.491603	  0.066937	
6.5	  0.776572	  0.511373	  0.069268	
6.5625	  0.744202	  0.543744	  0.069976	
6.625	  0.703255	  0.596444	  0.070576	
6.6875	  0.650143	  0.614763	  0.070223	
6.75	  0.621906	  0.596504	  0.070107	
6.8125	  0.637843	  0.583988	  0.072508	
6.875	  0.670906	  0.592471	  0.075939	
6.9375	  0.691550	  0.625046	  0.078377	
7	  0.710521	  0.665446	  0.078850	
7.0625	  0.752226	  0.672514	  0.076025	
7.125	  0.820462	  0.658532	  0.073568	
7.1875	  0.905126	  0.647948	  0.072997	
7.25	  0.972794	  0.661534	  0.073101	
7.3125	  0.999665	  0.695118	  0.071944	
7.375	  0.989363	  0.726500	  0.069914	
7.4375	  0.956016	  0.750856	  0.067337	
7.5	  0.908213	  0.766236	  0.064471	
7.5625	  0.855019	  0.756039	  0.062509	
7.625	  0.807868	  0.702874	  0.063123	
7.6875	  0.771181	  0.654814	  0.065953	
7.75	  0.748827	  0.632607	  0.068984	
7.8125	  0.741572	  0.646256	  0.070422	
7.875	  0.743754	  0.671900	  0.069289	
7.9375	  0.754979	  0.711225	  0.067181	
8	  0.770888	  0.729632	  0.065371	
8.0625	  0.801406	  0.705898	  0.064178	
8.125	  0.834868	  0.636094	  0.063029	
8.1875	  0.860297	  0.534547	  0.061544	
8.25	  0.858417	  0.438461	  0.059693	
8.3125	  0.823517	  0.371552	  0.056769	
8.375	  0.775626	  0.337509	  0.054428	
8.4375	  0.732503	  0.342595	  0.052936	
8.5	  0.709495	  0.364456	  0.052103	
8.5625	  0.697423	  0.374779	  0.051777	
8.625	  0.692373	  0.390654	  0.052438	
8.6875	  0.681036	  0.413019	  0.053144	
8.75	  0.677693	  0.425983	  0.053529	
8.8125	  0.698900	  0.424915	  0.054081	
8.875	  0.740694	  0.417522	  0.056087	
8.9375	  0.775251	  0.420181	  0.059678	
9	  0.790841	  0.447445	  0.063133	
9.0625	  0.788883	  0.487674	  0.065417	
9.125	  0.760584	  0.509941	  0.065503	
9.1875	  0.721986	  0.496760	  0.063367	
9.25	  0.686500	  0.460013	  0.060587	
9.3125	  0.669919	  0.435825	  0.058041	
9.375	  0.675488	  0.424569	  0.055566	
9.4375	  0.678115	  0.415376	  0.052844	
9.5	  0.658203	  0.404754	  0.049532	
9.5625	  0.609862	  0.376199	  0.045702	
9.625	  0.546680	  0.328719	  0.040638	
9.6875	  0.495901	  0.269405	  0.034765	
9.75	  0.473921	  0.222589	  0.031188	
9.8125	  0.471635	  0.208432	  0.030858	
9.875	  0.470034	  0.219749	  0.032238	
9.9375	  0.462615	  0.239498	  0.033387	
10	  0.442645	  0.256447	  0.032194	
10.0625	  0.411975	  0.260111	  0.028774	
10.125	  0.369757	  0.255069	  0.025250	
10.1875	  0.311551	  0.238173	  0.022000	
10.25	  0.238353	  0.208593	  0.018673	
10.3125	  0.159654	  0.169373	  0.014953	
10.375	  0.092719	  0.124767	  0.011357	
10.4375	  0.045921	  0.082397	  0.008391	
10.5	  0.018985	  0.050101	  0.006439	
